<?xml version="1.0" encoding="utf-8"?>
<!-- Generator: Adobe Illustrator 16.0.0, SVG Export Plug-In . SVG Version: 6.00 Build 0)  -->
<svg version="1.2" baseProfile="tiny" xmlns="http://www.w3.org/2000/svg" xmlns:xlink="http://www.w3.org/1999/xlink" x="0px"
	 y="0px" width="392.907px" height="132px" viewBox="0 0 392.907 132" xml:space="preserve">
<g id="圖層_1">
	<g>
		<g>
			<polygon fill="#A6C35F" points="48.764,64.777 48.764,41.647 28.754,30.224 28.754,53.263 			"/>
			<polygon fill="#318A79" points="28.754,30.224 48.764,18.512 68.773,30.224 48.764,41.842 			"/>
			<polygon fill="#A6C35F" points="88.782,64.777 88.782,41.647 108.792,30.224 108.792,53.263 			"/>
			<polygon fill="#318A79" points="108.792,30.224 88.782,18.512 68.773,30.224 88.782,41.842 			"/>
			<polygon fill="#318A79" points="88.535,64.742 68.532,76.364 68.704,99.403 88.626,87.834 			"/>
			<polygon fill="#A6C35F" points="68.704,99.403 48.527,87.979 48.609,64.791 68.7,76.263 			"/>
			<polygon fill="#A6C35F" points="112.731,50.957 112.731,27.824 132.74,16.402 132.74,39.438 			"/>
			<polygon fill="#318A79" points="132.74,16.402 112.731,4.691 92.719,16.402 112.731,28.017 			"/>
			<polygon fill="#A6C35F" points="24.657,51.117 24.657,27.984 4.646,16.566 4.646,39.599 			"/>
			<polygon fill="#318A79" points="4.646,16.566 24.657,4.851 44.666,16.566 24.657,28.178 			"/>
			<polygon fill="#A6C35F" points="48.471,92.974 68.532,104.489 68.473,127.528 48.496,116.062 			"/>
			<polygon fill="#318A79" points="68.473,127.528 88.595,116.009 88.398,92.821 68.364,104.391 			"/>
		</g>
		<g>
			<path fill="#318A79" d="M129.763,68.291c-1.469,2.827-3.43,5.878-5.877,9.15c3.027,0,5.354-0.011,6.979-0.033h1.603
				c2.337,0,4.564-0.112,6.678-0.335l-2.705-2.705l-2.604-2.404l2.604-1.97c3.674,3.139,6.957,6.512,9.852,10.119l-2.573,2.504
				l-1.102-1.502l-0.835-1.103c-3.806,0.313-7.58,0.467-11.319,0.467c-6.946,0-11.789,0.056-14.526,0.168l-0.333-3.406l2.538,0.167
				h1.835c2.828-3.339,4.987-6.69,6.479-10.052L129.763,68.291z M118.442,83.919h24.878v14.158h-3.339v-1.969h-18.198v1.969h-3.341
				V83.919z M139.981,86.825h-18.198v6.377h18.198V86.825z"/>
			<path fill="#318A79" d="M159.783,77.574c2.003,1.692,3.897,3.874,5.678,6.545l-1.904,2.904c-1.424-2.56-2.684-4.43-3.774-5.609
				v16.662h-3.172V82.149c-1.112,2.783-2.826,5.676-5.142,8.682L150,87.158c2.982-3.763,5.109-7.424,6.377-10.986h-5.843V73.3h6.076
				v-5.945h3.172V73.3h4.977v2.872h-4.977V77.574z M180.787,88.026c-2.737,2.938-5.805,5.355-9.2,7.247
				c-3.395,1.892-5.372,2.839-5.928,2.839l-1.835-2.906c5.41-1.803,10.306-4.964,14.692-9.484L180.787,88.026z M178.117,69.659
				c-3.118,3.252-6.747,5.699-10.886,7.348l-1.604-2.739c4.207-1.604,7.636-3.841,10.285-6.712L178.117,69.659z M179.385,78.442
				c-2.493,2.872-5.643,5.289-9.449,7.247l-2.071,1.069l-1.703-2.772c4.585-2.181,8.27-4.775,11.053-7.781L179.385,78.442z"/>
			<path fill="#318A79" d="M201.158,73.733h12.02v2.372h-12.02v1.837h14.059v2.571h-30.755v-2.571h13.591v-1.837h-11.321v-2.372
				h11.321v-1.735h-12.456v-2.539h12.456v-2.104h3.105v2.104h12.855v2.539h-12.855V73.733z M211.876,93.97v0.4
				c0,1.113-0.206,1.953-0.617,2.522c-0.413,0.567-1.254,0.852-2.521,0.852h-4.976l-0.668-2.605l4.642,0.134
				c0.757,0,1.136-0.257,1.136-0.768v-1.203h-18.233v4.743h-3.005V82.216h24.243V93.97z M190.639,86.656h18.233v-1.902h-18.233
				V86.656z M190.639,91.031h18.233v-2.103h-18.233V91.031z"/>
			<path fill="#318A79" d="M238.088,78.643h9.783v2.938h-9.783v6.479h11.521v3.004h-11.521v7.013h-3.339v-7.013h-15.828V88.06h5.608
				v-9.417h10.22v-4.708h-7.414c-0.179,0.199-0.324,0.368-0.434,0.5c-1.247,1.469-2.995,3.207-5.244,5.21l-2.771-2.339
				c3.674-2.515,6.535-5.832,8.582-9.951l3.239,0.802c-0.11,0.223-0.199,0.412-0.267,0.567c-0.268,0.557-0.479,0.98-0.634,1.269
				l-0.602,1.003h19.501v2.938h-10.618V78.643z M227.803,81.582v6.479h6.946v-6.479H227.803z"/>
			<path fill="#318A79" d="M256.353,84.319v-7.948l-1.402,0.902l-1.501-2.839c3.983-2.114,6.845-4.418,8.581-6.913h2.872
				c0.578,0.357,1.056,0.646,1.435,0.869c1.826,1.113,4.387,2.906,7.682,5.377l-1.335,3.071l-1.002-0.833v10.752h-12.724
				c-0.244,4.051-1.235,7.68-2.971,10.884l-2.538-1.937C255.386,92.278,256.353,88.482,256.353,84.319z M257.189,75.871h6.379
				c-0.18-0.422-0.457-0.889-0.836-1.402l-1.102-1.504l2.805-0.667c1.002,1.134,1.725,2.326,2.171,3.572h4.907
				c-2.715-2.404-5.286-4.297-7.712-5.678C261.752,72.444,259.547,74.335,257.189,75.871z M259.026,84.319h9.917V82.35h-9.885
				L259.026,84.319z M268.943,78.308h-9.85v1.77h9.85V78.308z M259.093,88.56h13.322v9.517h-2.838v-1.569h-7.647v1.569h-2.837V88.56
				z M269.578,90.999h-7.647v3.071h7.647V90.999z M274.586,90.73V69.593h3.005V90.73H274.586z M280.296,67.355h3.106v26.381v0.4
				c0,1.247-0.261,2.132-0.785,2.654c-0.524,0.524-1.531,0.787-3.022,0.787h-3.84l-0.734-3.341l4.207,0.168
				c0.712,0,1.068-0.357,1.068-1.069V67.355z"/>
			<path fill="#318A79" d="M309.516,72.565c0.801-0.98,1.656-2.416,2.569-4.308c0.047-0.111,0.112-0.245,0.203-0.4l2.869,1.469
				l-0.967,1.737c-0.29,0.468-0.635,0.968-1.037,1.502h5.446v2.672h-30.755v-2.672h5.711l-0.736-1.437
				c-0.333-0.578-0.768-1.213-1.305-1.903l2.772-1.235c0.757,1.047,1.304,1.881,1.638,2.504l1.036,2.071h1.968v-5.209h3.008v5.209
				h2.67v-5.209h3.008v5.209H309.516z M301.737,84.988h-12.055v-2.438h12.055v-1.837h-12.79v-2.536h8.08l-0.635-1.104l-0.833-1.134
				l3.105-0.701c0.286,0.333,0.612,0.812,0.968,1.435l0.833,1.504h5.446c0.42-0.378,0.822-0.88,1.199-1.504l0.801-1.435l3.206,0.701
				l-0.098,0.199c-0.358,0.646-0.826,1.326-1.402,2.038h7.711v2.536h-12.556v1.837h11.755v2.438h-11.755v2.071h13.56v2.638H307.98
				c2.584,2.181,6.12,3.685,10.62,4.507l-1.337,2.805c-5.475-1.313-9.639-3.739-12.49-7.279v8.348h-3.036v-8.314
				c-1.895,2.093-3.87,3.65-5.928,4.674c-2.062,1.023-4.235,1.87-6.529,2.538l-1.402-2.839c4.609-0.913,8.16-2.393,10.653-4.44
				H288.11v-2.638h13.627V84.988z"/>
			<path fill="#318A79" d="M346.681,85.087v2.404c-2.112,1.069-4.475,2.015-7.076,2.839h13.522v2.638h-13.522v1.335v0.701
				c0,1.848-0.993,2.772-2.975,2.772h-4.809l-0.735-2.638l4.475,0.134c0.648,0,0.971-0.322,0.971-0.969v-1.335h-14.16V90.33h14.16
				v-1.402c0.377-0.045,1.211-0.234,2.504-0.569l3.207-0.833h-13.726v-2.438H346.681z M349.554,83.685h-23.541v4.808h-2.905v-7.379
				h1.634l-0.333-12.523c3.072-0.134,5.456-0.446,7.148-0.935l1.435,2.404c-1.181,0.423-3.104,0.713-5.778,0.869l0.068,1.668h5.109
				v2.237h-5.008l0.032,1.837h4.976v2.272h-4.91l0.069,2.17h20.436l0.032-2.17h-4.576v-2.272h4.678l0.032-1.837h-4.71v-2.237h4.775
				l0.036-1.768h-5.178v-2.606h8.048l-0.334,12.891h1.703v7.379h-2.938V83.685z M338.268,71.963
				c-0.381,0.268-0.968,0.591-1.772,0.969l-2.068,1.002l-1.638-2.17l2.072-0.636c0.822-0.288,1.322-0.523,1.504-0.701l-1.105-0.834
				l-1.102-0.701l1.739-1.536L337,68.057l1.468,1.103l1.138-0.869c0.152-0.089,0.441-0.39,0.866-0.901l1.638,1.469
				c-0.359,0.423-0.682,0.746-0.972,0.968l-0.967,0.802l0.801,0.735l0.935,0.968l-2,1.469l-0.837-1.035L338.268,71.963z
				 M338.434,78.643c-0.645,0.513-1.804,1.08-3.471,1.703c-0.091,0.021-0.203,0.067-0.337,0.132l-1.402-2.203
				c0.29-0.067,0.515-0.11,0.67-0.134c0.845-0.177,1.688-0.489,2.536-0.935l0.2-0.1l-1.135-0.835l-1.068-0.733l1.703-1.437
				l1.134,0.734c0.623,0.38,1.08,0.714,1.369,1.002c0.468-0.312,0.859-0.622,1.171-0.935l1.102-1.101l1.703,1.469l-1.171,1.102
				l-1.032,0.869l0.935,0.833l0.935,0.902l-2.104,1.604l-0.936-1.136L338.434,78.643z"/>
			<path fill="#318A79" d="M367.686,70.728l-0.968,4.208c-0.381,1.58-0.769,2.882-1.17,3.906c1.739,3.185,2.604,5.678,2.604,7.48
				c0,3.051-1.579,4.575-4.739,4.575c-0.445,0-0.778-0.022-1.003-0.067l-0.834-3.071c0.489,0.089,1.123,0.132,1.902,0.132
				c0.134,0,0.29-0.011,0.468-0.032c0.177-0.022,0.301-0.035,0.365-0.035c0.602-0.11,0.902-0.634,0.902-1.569
				c0-1.558-0.913-3.984-2.735-7.279c0.468-1.268,0.866-2.56,1.199-3.874l0.902-3.674h-3.471v26.648h-3.105v-29.52h9.682V70.728z
				 M378.338,85.289h-2.337v0.199c0,0.201,0,0.39,0,0.569c0,0.11,0,0.212,0,0.299c0,2.785-0.642,5.122-1.921,7.013
				c-1.278,1.891-3.388,3.473-6.326,4.743l-1.971-2.739c2.717-0.935,4.598-2.125,5.642-3.573c1.047-1.447,1.572-3.417,1.572-5.911
				v-0.433c0-0.045-0.015-0.1-0.036-0.167h-4.341v-2.906h19.103v2.906h-6.345v8.415c0,0.755,0.388,1.134,1.167,1.134h0.735
				c0.757,0,1.206-0.196,1.352-0.583c0.145-0.39,0.217-1.977,0.217-4.759l2.675,0.701v0.201v0.602c0,3.339-0.319,5.27-0.953,5.792
				c-0.634,0.524-1.722,0.787-3.258,0.787h-1.199h-0.435c-1.112,0-1.949-0.263-2.504-0.787c-0.558-0.521-0.837-1.542-0.837-3.054
				V85.289z M384.618,79.344h-13.49v-1.604h-2.539v-7.313h7.612c-0.087-0.2-0.156-0.355-0.199-0.467
				c-0.156-0.378-0.312-0.701-0.468-0.968l-0.699-1.236l3.171-0.4c0.29,0.467,0.521,0.947,0.702,1.436l0.599,1.636h7.815v7.346
				h-2.504V79.344z M384.082,73.333h-12.454v3.205h12.454V73.333z"/>
		</g>
		<g>
			<path fill="#A6C35F" d="M120.322,114.582h-1.725v-9.647h-2.504v-1.614h6.734v1.614h-2.504V114.582z"/>
			<path fill="#A6C35F" d="M130.599,114.582h-1.763v-0.667c-0.519,0.605-1.292,0.908-2.319,0.908s-1.846-0.396-2.458-1.187
				c-0.612-0.792-0.918-1.719-0.918-2.783c0-1.065,0.312-1.971,0.937-2.718c0.624-0.75,1.425-1.123,2.402-1.123
				c1.039,0,1.824,0.31,2.356,0.928v-0.687h1.763V114.582z M129.041,110.907c0-0.679-0.191-1.239-0.575-1.677
				c-0.384-0.438-0.876-0.66-1.476-0.66s-1.088,0.214-1.465,0.641c-0.377,0.426-0.565,0.993-0.565,1.696
				c0,0.707,0.191,1.275,0.575,1.707c0.383,0.435,0.878,0.65,1.484,0.65s1.094-0.21,1.465-0.63
				C128.855,112.213,129.041,111.639,129.041,110.907z"/>
			<path fill="#A6C35F" d="M134.402,104.175c0,0.282-0.105,0.531-0.315,0.741c-0.21,0.21-0.458,0.315-0.742,0.315
				c-0.284,0-0.532-0.105-0.742-0.315c-0.211-0.21-0.315-0.458-0.315-0.741c0-0.287,0.104-0.533,0.315-0.743
				c0.21-0.21,0.458-0.315,0.742-0.315c0.285,0,0.532,0.105,0.742,0.315C134.297,103.643,134.402,103.889,134.402,104.175z
				 M134.253,114.582h-1.799v-7.328h1.799V114.582z"/>
			<path fill="#A6C35F" d="M138.854,112.04l1.949-5.027h0.648l2.041,5.009l1.818-4.768h1.986l-3.415,7.477h-0.908l-1.688-4.694
				l-1.93,4.694h-0.927l-3.358-7.477h1.986L138.854,112.04z"/>
			<path fill="#A6C35F" d="M154.791,114.582h-1.763v-0.667c-0.519,0.605-1.292,0.908-2.319,0.908s-1.846-0.396-2.458-1.187
				c-0.612-0.792-0.918-1.719-0.918-2.783c0-1.065,0.312-1.971,0.937-2.718c0.624-0.75,1.425-1.123,2.402-1.123
				c1.039,0,1.824,0.31,2.356,0.928v-0.687h1.763V114.582z M153.231,110.907c0-0.679-0.191-1.239-0.574-1.677
				c-0.384-0.438-0.876-0.66-1.476-0.66s-1.088,0.214-1.466,0.641c-0.376,0.426-0.565,0.993-0.565,1.696
				c0,0.707,0.191,1.275,0.575,1.707c0.383,0.435,0.877,0.65,1.484,0.65c0.606,0,1.094-0.21,1.465-0.63
				C153.047,112.213,153.231,111.639,153.231,110.907z"/>
			<path fill="#A6C35F" d="M158.185,107.922c0.506-0.605,1.255-0.91,2.245-0.91c1.681,0,2.522,1.033,2.522,3.098v4.471h-1.781
				v-3.877c0-1.547-0.477-2.319-1.429-2.319c-1.039,0-1.558,0.83-1.558,2.486v3.71h-1.8v-7.328h1.8V107.922z"/>
			<path fill="#A6C35F" d="M166.755,104.175c0,0.282-0.105,0.531-0.315,0.741c-0.21,0.21-0.457,0.315-0.742,0.315
				s-0.532-0.105-0.742-0.315c-0.211-0.21-0.315-0.458-0.315-0.741c0-0.287,0.104-0.533,0.315-0.743
				c0.21-0.21,0.457-0.315,0.742-0.315s0.532,0.105,0.742,0.315C166.65,103.643,166.755,103.889,166.755,104.175z M166.606,114.582
				h-1.799v-7.328h1.799V114.582z"/>
			<path fill="#A6C35F" d="M175.364,114.582h-1.763v-0.667c-0.519,0.605-1.292,0.908-2.319,0.908s-1.846-0.396-2.458-1.187
				c-0.612-0.792-0.918-1.719-0.918-2.783c0-1.065,0.312-1.971,0.937-2.718c0.624-0.75,1.425-1.123,2.402-1.123
				c1.039,0,1.824,0.31,2.356,0.928v-0.687h1.763V114.582z M173.805,110.907c0-0.679-0.191-1.239-0.575-1.677
				c-0.384-0.438-0.875-0.66-1.476-0.66c-0.6,0-1.088,0.214-1.465,0.641c-0.377,0.426-0.565,0.993-0.565,1.696
				c0,0.707,0.191,1.275,0.575,1.707c0.383,0.435,0.878,0.65,1.484,0.65s1.094-0.21,1.466-0.63
				C173.62,112.213,173.805,111.639,173.805,110.907z"/>
			<path fill="#A6C35F" d="M182.357,103.32h2.264l2.17,4.212l2.356-4.212h2.263l-3.599,6.142v5.12h-1.91v-5.12L182.357,103.32z"/>
			<path fill="#A6C35F" d="M199.313,110.907c0,1.152-0.353,2.091-1.057,2.821s-1.629,1.094-2.773,1.094s-2.075-0.364-2.792-1.094
				s-1.076-1.667-1.076-2.81c0-1.145,0.353-2.082,1.058-2.812c0.705-0.728,1.632-1.094,2.783-1.094c1.149,0,2.081,0.362,2.792,1.085
				C198.958,108.82,199.313,109.759,199.313,110.907z M193.432,110.937c0,0.685,0.192,1.246,0.575,1.677
				c0.383,0.435,0.878,0.65,1.485,0.65c0.605,0,1.091-0.232,1.456-0.695c0.365-0.464,0.547-1.013,0.547-1.65
				c0-0.638-0.185-1.188-0.556-1.652c-0.372-0.464-0.857-0.696-1.457-0.696c-0.6,0-1.092,0.223-1.475,0.668
				C193.624,109.683,193.432,110.25,193.432,110.937z"/>
			<path fill="#A6C35F" d="M202.151,107.253v3.969c0,1.424,0.495,2.134,1.484,2.134s1.485-0.71,1.485-2.134v-3.969h1.799v4.304
				c0,2.176-1.094,3.265-3.284,3.265c-2.188,0-3.284-1.089-3.284-3.265v-4.304H202.151z"/>
			<path fill="#A6C35F" d="M210.277,107.922c0.507-0.605,1.255-0.91,2.245-0.91c1.681,0,2.522,1.033,2.522,3.098v4.471h-1.781
				v-3.877c0-1.547-0.477-2.319-1.428-2.319c-1.039,0-1.559,0.83-1.559,2.486v3.71h-1.799v-7.328h1.799V107.922z"/>
			<path fill="#A6C35F" d="M223.616,113.951c0,2.511-1.169,3.765-3.507,3.765c-1.039,0-1.918-0.281-2.634-0.844
				c-0.718-0.562-1.076-1.294-1.076-2.198h1.91c0,0.359,0.18,0.712,0.538,1.058c0.359,0.346,0.762,0.52,1.207,0.52
				c1.174,0,1.762-0.707,1.762-2.116v-0.464c-0.508,0.645-1.277,0.964-2.311,0.964c-1.032,0-1.842-0.357-2.43-1.074
				c-0.587-0.717-0.881-1.596-0.881-2.636c0-1.123,0.315-2.065,0.945-2.819c0.631-0.753,1.451-1.13,2.459-1.13
				s1.746,0.315,2.217,0.946v-0.707h1.8V113.951z M222.076,110.759c0-0.667-0.186-1.205-0.557-1.612
				c-0.371-0.41-0.859-0.612-1.465-0.612c-0.607,0-1.098,0.221-1.477,0.667c-0.376,0.446-0.564,1.009-0.564,1.688
				c0,1.46,0.68,2.188,2.041,2.188c0.617,0,1.109-0.217,1.475-0.658C221.893,111.981,222.076,111.427,222.076,110.759z"/>
			<path fill="#A6C35F" d="M233.374,104.934v2.932h3.784v1.614h-3.784v3.487h3.914v1.614h-5.825V103.32h5.825v1.614H233.374z"/>
			<path fill="#A6C35F" d="M240.589,107.922c0.506-0.605,1.254-0.91,2.244-0.91c1.682,0,2.523,1.033,2.523,3.098v4.471h-1.781
				v-3.877c0-1.547-0.477-2.319-1.428-2.319c-1.039,0-1.559,0.83-1.559,2.486v3.71h-1.8v-7.328h1.8V107.922z"/>
			<path fill="#A6C35F" d="M249.16,114.582h-1.799v-5.714h-0.872v-1.465h0.872v-2.634h1.799v2.634h1.43v1.465h-1.43V114.582z"/>
			<path fill="#A6C35F" d="M252.945,108.014c0.457-0.668,1.175-1.002,2.151-1.002c0.31,0,0.595,0.062,0.854,0.185l-0.223,1.634
				c-0.273-0.174-0.569-0.261-0.891-0.261c-1.262,0-1.893,0.902-1.893,2.71v3.301h-1.8v-7.328h1.8V108.014z"/>
			<path fill="#A6C35F" d="M258.103,111.094c0,0.705,0.154,1.287,0.463,1.745c0.31,0.457,0.736,0.685,1.281,0.685
				c0.853,0,1.396-0.42,1.633-1.261l1.707,0.279c-0.558,1.522-1.67,2.281-3.34,2.281c-1.113,0-2.001-0.355-2.663-1.067
				c-0.661-0.71-0.991-1.634-0.991-2.772c0-1.199,0.317-2.163,0.954-2.886c0.638-0.723,1.503-1.085,2.599-1.085
				c1.094,0,1.947,0.344,2.56,1.029c0.612,0.688,0.919,1.623,0.919,2.812v0.241H258.103z M261.553,110.092
				c0-0.507-0.157-0.953-0.474-1.337c-0.314-0.382-0.723-0.574-1.223-0.574c-0.502,0-0.91,0.201-1.225,0.604
				c-0.316,0.402-0.474,0.837-0.474,1.308H261.553z"/>
			<path fill="#A6C35F" d="M266.08,107.922c0.52-0.605,1.292-0.91,2.318-0.91c0.965,0,1.766,0.384,2.402,1.15
				c0.637,0.767,0.956,1.668,0.956,2.708c0,1.127-0.315,2.065-0.946,2.819c-0.631,0.756-1.447,1.132-2.449,1.132
				c-1.076,0-1.824-0.31-2.244-0.927l-0.037,3.784h-1.8v-10.426h1.8V107.922z M269.919,110.907c0-0.63-0.18-1.177-0.538-1.641
				s-0.854-0.696-1.483-0.696c-0.582,0-1.064,0.235-1.447,0.707c-0.384,0.469-0.576,1.011-0.576,1.623s0.205,1.16,0.613,1.642
				s0.878,0.723,1.41,0.723c0.63,0,1.125-0.223,1.483-0.668S269.919,111.588,269.919,110.907z"/>
			<path fill="#A6C35F" d="M274.613,108.014c0.457-0.668,1.175-1.002,2.151-1.002c0.31,0,0.595,0.062,0.854,0.185l-0.223,1.634
				c-0.273-0.174-0.569-0.261-0.891-0.261c-1.262,0-1.893,0.902-1.893,2.71v3.301h-1.801v-7.328h1.801V108.014z"/>
			<path fill="#A6C35F" d="M279.771,111.094c0,0.705,0.154,1.287,0.463,1.745c0.309,0.457,0.736,0.685,1.28,0.685
				c0.854,0,1.397-0.42,1.634-1.261l1.706,0.279c-0.556,1.522-1.669,2.281-3.34,2.281c-1.112,0-2-0.355-2.662-1.067
				c-0.661-0.71-0.992-1.634-0.992-2.772c0-1.199,0.318-2.163,0.955-2.886c0.638-0.723,1.503-1.085,2.598-1.085
				s1.946,0.344,2.56,1.029c0.611,0.688,0.92,1.623,0.92,2.812v0.241H279.771z M283.222,110.092c0-0.507-0.16-0.953-0.475-1.337
				c-0.314-0.382-0.723-0.574-1.224-0.574s-0.909,0.201-1.225,0.604c-0.315,0.402-0.473,0.837-0.473,1.308H283.222z"/>
			<path fill="#A6C35F" d="M287.748,107.922c0.507-0.605,1.254-0.91,2.244-0.91c1.682,0,2.523,1.033,2.523,3.098v4.471h-1.782
				v-3.877c0-1.547-0.475-2.319-1.428-2.319c-1.04,0-1.558,0.83-1.558,2.486v3.71h-1.801v-7.328h1.801V107.922z"/>
			<path fill="#A6C35F" d="M295.501,111.094c0,0.705,0.156,1.287,0.463,1.745c0.311,0.457,0.736,0.685,1.281,0.685
				c0.854,0,1.396-0.42,1.633-1.261l1.707,0.279c-0.557,1.522-1.669,2.281-3.34,2.281c-1.112,0-2-0.355-2.661-1.067
				c-0.663-0.71-0.993-1.634-0.993-2.772c0-1.199,0.319-2.163,0.955-2.886c0.638-0.723,1.502-1.085,2.598-1.085
				c1.095,0,1.948,0.344,2.561,1.029c0.612,0.688,0.918,1.623,0.918,2.812v0.241H295.501z M298.953,110.092
				c0-0.507-0.158-0.953-0.473-1.337c-0.315-0.382-0.723-0.574-1.225-0.574c-0.5,0-0.91,0.201-1.225,0.604
				c-0.316,0.402-0.472,0.837-0.472,1.308H298.953z"/>
			<path fill="#A6C35F" d="M303.442,107.253v3.969c0,1.424,0.495,2.134,1.483,2.134c0.989,0,1.486-0.71,1.486-2.134v-3.969h1.797
				v4.304c0,2.176-1.094,3.265-3.283,3.265c-2.188,0-3.282-1.089-3.282-3.265v-4.304H303.442z"/>
			<path fill="#A6C35F" d="M311.567,108.014c0.457-0.668,1.174-1.002,2.152-1.002c0.309,0,0.595,0.062,0.854,0.185l-0.223,1.634
				c-0.271-0.174-0.569-0.261-0.892-0.261c-1.261,0-1.892,0.902-1.892,2.71v3.301h-1.801v-7.328h1.801V108.014z"/>
			<path fill="#A6C35F" d="M319.249,108.775c-0.396-0.371-0.812-0.556-1.242-0.556c-0.656,0-0.984,0.297-0.984,0.89
				c0,0.335,0.297,0.607,0.89,0.817c1.089,0.395,1.765,0.757,2.021,1.085c0.262,0.328,0.392,0.733,0.392,1.215
				c0,0.79-0.275,1.42-0.826,1.892s-1.229,0.705-2.032,0.705c-1.036,0-1.899-0.408-2.576-1.223l0.797-1.022
				c0.618,0.62,1.187,0.928,1.706,0.928c0.754,0,1.131-0.364,1.131-1.094c0-0.372-0.197-0.645-0.594-0.826
				c-0.396-0.178-0.698-0.312-0.908-0.398c-1.138-0.495-1.706-1.094-1.706-1.799c0-0.705,0.212-1.277,0.64-1.715
				c0.427-0.438,0.985-0.66,1.679-0.66c0.989,0,1.773,0.254,2.357,0.761L319.249,108.775z"/>
			<path fill="#A6C35F" d="M329.989,112.06l-1,2.522h-2.022l4.377-11.559h1.707l4.267,11.559h-2.04l-0.947-2.522H329.989z
				 M332.086,105.788l-1.635,4.768h3.359L332.086,105.788z"/>
			<path fill="#A6C35F" d="M343.031,109.165c-0.458-0.457-0.972-0.687-1.54-0.687c-0.669,0-1.194,0.241-1.576,0.723
				c-0.384,0.482-0.574,1.073-0.574,1.772s0.216,1.271,0.648,1.717c0.432,0.446,0.958,0.667,1.576,0.667
				c0.532,0,1.021-0.236,1.466-0.705v1.727c-0.521,0.295-1.12,0.444-1.799,0.444c-1.065,0-1.949-0.376-2.652-1.132
				c-0.707-0.753-1.059-1.674-1.059-2.765c0-1.087,0.362-2.011,1.086-2.771c0.723-0.761,1.628-1.142,2.717-1.142
				c0.644,0,1.212,0.156,1.707,0.464V109.165z"/>
			<path fill="#A6C35F" d="M351.361,114.582h-1.763v-0.667c-0.519,0.605-1.294,0.908-2.319,0.908s-1.846-0.396-2.456-1.187
				c-0.612-0.792-0.921-1.719-0.921-2.783c0-1.065,0.312-1.971,0.938-2.718c0.623-0.75,1.424-1.123,2.402-1.123
				c1.038,0,1.822,0.31,2.355,0.928v-0.687h1.763V114.582z M349.801,110.907c0-0.679-0.19-1.239-0.573-1.677
				c-0.384-0.438-0.877-0.66-1.477-0.66s-1.089,0.214-1.465,0.641c-0.377,0.426-0.565,0.993-0.565,1.696
				c0,0.707,0.191,1.275,0.576,1.707c0.382,0.435,0.877,0.65,1.481,0.65c0.607,0,1.095-0.21,1.468-0.63
				C349.616,112.213,349.801,111.639,349.801,110.907z"/>
			<path fill="#A6C35F" d="M358.113,113.895c-0.481,0.618-1.243,0.927-2.281,0.927s-1.864-0.396-2.477-1.187
				c-0.612-0.792-0.918-1.719-0.918-2.783c0-1.065,0.312-1.971,0.937-2.718c0.623-0.75,1.424-1.123,2.402-1.123
				c1.04,0,1.805,0.304,2.301,0.91l0.036-6.011h1.801v12.671h-1.801V113.895z M358.318,110.907c0-0.641-0.198-1.192-0.593-1.65
				c-0.398-0.458-0.873-0.687-1.43-0.687c-0.556,0-1.036,0.227-1.438,0.678c-0.4,0.453-0.603,1.007-0.603,1.67
				c0,0.661,0.195,1.217,0.585,1.668s0.882,0.677,1.475,0.677s1.076-0.219,1.447-0.657
				C358.131,112.167,358.318,111.601,358.318,110.907z"/>
			<path fill="#A6C35F" d="M362.881,111.094c0,0.705,0.154,1.287,0.464,1.745c0.308,0.457,0.735,0.685,1.278,0.685
				c0.854,0,1.399-0.42,1.635-1.261l1.706,0.279c-0.558,1.522-1.67,2.281-3.341,2.281c-1.112,0-2-0.355-2.663-1.067
				c-0.659-0.71-0.99-1.634-0.99-2.772c0-1.199,0.316-2.163,0.954-2.886c0.638-0.723,1.504-1.085,2.599-1.085
				c1.094,0,1.947,0.344,2.56,1.029c0.612,0.688,0.918,1.623,0.918,2.812v0.241H362.881z M366.331,110.092
				c0-0.507-0.157-0.953-0.473-1.337c-0.315-0.382-0.723-0.574-1.223-0.574c-0.502,0-0.91,0.201-1.225,0.604
				c-0.315,0.402-0.475,0.837-0.475,1.308H366.331z"/>
			<path fill="#A6C35F" d="M370.858,107.904c0.458-0.594,1.161-0.892,2.114-0.892c0.83,0,1.485,0.384,1.968,1.15
				c0.469-0.766,1.229-1.15,2.28-1.15c1.546,0,2.319,1.002,2.319,3.005v4.564h-1.781v-3.859c0-1.558-0.427-2.337-1.278-2.337
				c-0.855,0-1.281,0.866-1.281,2.598v3.598H373.4v-3.71c0-1.656-0.377-2.486-1.133-2.486c-0.939,0-1.409,0.866-1.409,2.598v3.598
				h-1.799v-7.328h1.799V107.904z"/>
			<path fill="#A6C35F" d="M380.281,107.253h2.079l1.91,4.396l2.004-4.396h2.039l-5.191,10.39h-2.004l2.261-4.192L380.281,107.253z"
				/>
		</g>
	</g>
</g>
<g id="線條">
</g>
</svg>
